{
    "asset" : {
        "generator" : "Khronos glTF Blender I/O v3.2.43",
        "version" : "2.0"
    },
    "scene" : 0,
    "scenes" : [
        {
            "name" : "Scene",
            "nodes" : [
                4
            ]
        }
    ],
    "nodes" : [
        {
            "name" : "right",
            "rotation" : [
                -0.7014119625091553,
                0.001665013493038714,
                -0.049399327486753464,
                0.7110402584075928
            ],
            "translation" : [
                4.073107362501105e-08,
                1.0000001192092896,
                -3.904560585965555e-08
            ]
        },
        {
            "name" : "left",
            "rotation" : [
                0.7013269066810608,
                0.001061248010955751,
                0.07918065041303635,
                0.7084277868270874
            ],
            "scale" : [
                1.0000001192092896,
                1,
                1
            ],
            "translation" : [
                4.073107362501105e-08,
                1.0000001192092896,
                -3.904560585965555e-08
            ]
        },
        {
            "children" : [
                0,
                1
            ],
            "name" : "main",
            "rotation" : [
                8.881784197001252e-16,
                -8.604228440844963e-16,
                0,
                1
            ],
            "translation" : [
                -7.697696702280155e-09,
                7.776088750688359e-08,
                -6.552540554594088e-08
            ]
        },
        {
            "mesh" : 0,
            "name" : "Cube",
            "skin" : 0
        },
        {
            "children" : [
                3,
                2
            ],
            "name" : "Armature",
            "rotation" : [
                0,
                0,
                0.6956131458282471,
                0.7184165716171265
            ],
            "scale" : [
                4.786609649658203,
                4.786609649658203,
                4.786609649658203
            ],
            "translation" : [
                5.149424076080322,
                2.439201593399048,
                3.1619277000427246
            ]
        }
    ],
    "animations" : [
        {
            "channels" : [
                {
                    "sampler" : 0,
                    "target" : {
                        "node" : 2,
                        "path" : "translation"
                    }
                },
                {
                    "sampler" : 1,
                    "target" : {
                        "node" : 2,
                        "path" : "rotation"
                    }
                },
                {
                    "sampler" : 2,
                    "target" : {
                        "node" : 2,
                        "path" : "scale"
                    }
                },
                {
                    "sampler" : 3,
                    "target" : {
                        "node" : 0,
                        "path" : "translation"
                    }
                },
                {
                    "sampler" : 4,
                    "target" : {
                        "node" : 0,
                        "path" : "rotation"
                    }
                },
                {
                    "sampler" : 5,
                    "target" : {
                        "node" : 0,
                        "path" : "scale"
                    }
                },
                {
                    "sampler" : 6,
                    "target" : {
                        "node" : 1,
                        "path" : "translation"
                    }
                },
                {
                    "sampler" : 7,
                    "target" : {
                        "node" : 1,
                        "path" : "rotation"
                    }
                },
                {
                    "sampler" : 8,
                    "target" : {
                        "node" : 1,
                        "path" : "scale"
                    }
                }
            ],
            "name" : "fly",
            "samplers" : [
                {
                    "input" : 7,
                    "interpolation" : "LINEAR",
                    "output" : 8
                },
                {
                    "input" : 7,
                    "interpolation" : "LINEAR",
                    "output" : 9
                },
                {
                    "input" : 7,
                    "interpolation" : "LINEAR",
                    "output" : 10
                },
                {
                    "input" : 7,
                    "interpolation" : "LINEAR",
                    "output" : 11
                },
                {
                    "input" : 7,
                    "interpolation" : "LINEAR",
                    "output" : 12
                },
                {
                    "input" : 7,
                    "interpolation" : "LINEAR",
                    "output" : 13
                },
                {
                    "input" : 7,
                    "interpolation" : "LINEAR",
                    "output" : 14
                },
                {
                    "input" : 7,
                    "interpolation" : "LINEAR",
                    "output" : 15
                },
                {
                    "input" : 7,
                    "interpolation" : "LINEAR",
                    "output" : 16
                }
            ]
        }
    ],
    "materials" : [
        {
            "doubleSided" : true,
            "name" : "Material",
            "pbrMetallicRoughness" : {
                "baseColorFactor" : [
                    0.8000000715255737,
                    0.7415706515312195,
                    0.2371167689561844,
                    1
                ],
                "metallicFactor" : 0,
                "roughnessFactor" : 0.4000000059604645
            }
        }
    ],
    "meshes" : [
        {
            "name" : "Cube",
            "primitives" : [
                {
                    "attributes" : {
                        "POSITION" : 0,
                        "NORMAL" : 1,
                        "TEXCOORD_0" : 2,
                        "JOINTS_0" : 3,
                        "WEIGHTS_0" : 4
                    },
                    "indices" : 5,
                    "material" : 0
                }
            ]
        }
    ],
    "skins" : [
        {
            "inverseBindMatrices" : 6,
            "joints" : [
                2,
                0,
                1
            ],
            "name" : "Armature"
        }
    ],
    "accessors" : [
        {
            "bufferView" : 0,
            "componentType" : 5126,
            "count" : 754,
            "max" : [
                0.9999995231628418,
                7.806317329406738,
                9.809642791748047
            ],
            "min" : [
                -0.30994153022766113,
                -1.9806019067764282,
                -3.3650543689727783
            ],
            "type" : "VEC3"
        },
        {
            "bufferView" : 1,
            "componentType" : 5126,
            "count" : 754,
            "type" : "VEC3"
        },
        {
            "bufferView" : 2,
            "componentType" : 5126,
            "count" : 754,
            "type" : "VEC2"
        },
        {
            "bufferView" : 3,
            "componentType" : 5121,
            "count" : 754,
            "type" : "VEC4"
        },
        {
            "bufferView" : 4,
            "componentType" : 5126,
            "count" : 754,
            "type" : "VEC4"
        },
        {
            "bufferView" : 5,
            "componentType" : 5123,
            "count" : 1500,
            "type" : "SCALAR"
        },
        {
            "bufferView" : 6,
            "componentType" : 5126,
            "count" : 3,
            "type" : "MAT4"
        },
        {
            "bufferView" : 7,
            "componentType" : 5126,
            "count" : 47,
            "max" : [
                1.9583333333333333
            ],
            "min" : [
                0.041666666666666664
            ],
            "type" : "SCALAR"
        },
        {
            "bufferView" : 8,
            "componentType" : 5126,
            "count" : 47,
            "type" : "VEC3"
        },
        {
            "bufferView" : 9,
            "componentType" : 5126,
            "count" : 47,
            "type" : "VEC4"
        },
        {
            "bufferView" : 10,
            "componentType" : 5126,
            "count" : 47,
            "type" : "VEC3"
        },
        {
            "bufferView" : 11,
            "componentType" : 5126,
            "count" : 47,
            "type" : "VEC3"
        },
        {
            "bufferView" : 12,
            "componentType" : 5126,
            "count" : 47,
            "type" : "VEC4"
        },
        {
            "bufferView" : 13,
            "componentType" : 5126,
            "count" : 47,
            "type" : "VEC3"
        },
        {
            "bufferView" : 14,
            "componentType" : 5126,
            "count" : 47,
            "type" : "VEC3"
        },
        {
            "bufferView" : 15,
            "componentType" : 5126,
            "count" : 47,
            "type" : "VEC4"
        },
        {
            "bufferView" : 16,
            "componentType" : 5126,
            "count" : 47,
            "type" : "VEC3"
        }
    ],
    "bufferViews" : [
        {
            "buffer" : 0,
            "byteLength" : 9048,
            "byteOffset" : 0
        },
        {
            "buffer" : 0,
            "byteLength" : 9048,
            "byteOffset" : 9048
        },
        {
            "buffer" : 0,
            "byteLength" : 6032,
            "byteOffset" : 18096
        },
        {
            "buffer" : 0,
            "byteLength" : 3016,
            "byteOffset" : 24128
        },
        {
            "buffer" : 0,
            "byteLength" : 12064,
            "byteOffset" : 27144
        },
        {
            "buffer" : 0,
            "byteLength" : 3000,
            "byteOffset" : 39208
        },
        {
            "buffer" : 0,
            "byteLength" : 192,
            "byteOffset" : 42208
        },
        {
            "buffer" : 0,
            "byteLength" : 188,
            "byteOffset" : 42400
        },
        {
            "buffer" : 0,
            "byteLength" : 564,
            "byteOffset" : 42588
        },
        {
            "buffer" : 0,
            "byteLength" : 752,
            "byteOffset" : 43152
        },
        {
            "buffer" : 0,
            "byteLength" : 564,
            "byteOffset" : 43904
        },
        {
            "buffer" : 0,
            "byteLength" : 564,
            "byteOffset" : 44468
        },
        {
            "buffer" : 0,
            "byteLength" : 752,
            "byteOffset" : 45032
        },
        {
            "buffer" : 0,
            "byteLength" : 564,
            "byteOffset" : 45784
        },
        {
            "buffer" : 0,
            "byteLength" : 564,
            "byteOffset" : 46348
        },
        {
            "buffer" : 0,
            "byteLength" : 752,
            "byteOffset" : 46912
        },
        {
            "buffer" : 0,
            "byteLength" : 564,
            "byteOffset" : 47664
        }
    ],
    "buffers" : [
        {
            "byteLength" : 48228,
            "uri" : "data:application/octet-stream;base64,"
        }
    ]
}
