{
    "asset" : {
        "generator" : "Khronos glTF Blender I/O v3.3.27",
        "version" : "2.0"
    },
    "scene" : 0,
    "scenes" : [
        {
            "name" : "Scene",
            "nodes" : [
                7
            ]
        }
    ],
    "nodes" : [
        {
            "name" : "head",
            "rotation" : [
                0.39059579372406006,
                -0.06377646327018738,
                0.5742936730384827,
                0.7166270613670349
            ],
            "scale" : [
                1.0000001192092896,
                1,
                1.0000001192092896
            ],
            "translation" : [
                -5.878973752260208e-08,
                1,
                3.166496753692627e-08
            ]
        },
        {
            "name" : "left_arm",
            "rotation" : [
                -0.6562480330467224,
                0.11335595697164536,
                0.27351024746894836,
                0.6940324902534485
            ],
            "scale" : [
                1,
                0.9999999403953552,
                1
            ],
            "translation" : [
                -5.878973752260208e-08,
                1,
                3.166496753692627e-08
            ]
        },
        {
            "name" : "right_arm",
            "rotation" : [
                0.528375506401062,
                -0.15448696911334991,
                -0.44768232107162476,
                0.7046514749526978
            ],
            "scale" : [
                1,
                0.9999999403953552,
                0.9999999403953552
            ],
            "translation" : [
                -5.878973752260208e-08,
                1,
                3.166496753692627e-08
            ]
        },
        {
            "name" : "right_leg",
            "rotation" : [
                -0.2411113977432251,
                0.0003406103060115129,
                -0.6596213579177856,
                0.7118741869926453
            ],
            "scale" : [
                1,
                1,
                1.0000001192092896
            ],
            "translation" : [
                -5.878973752260208e-08,
                1,
                3.166496753692627e-08
            ]
        },
        {
            "name" : "left_leg",
            "rotation" : [
                -0.4107133746147156,
                -0.011408057995140553,
                -0.5506009459495544,
                0.7266520261764526
            ],
            "scale" : [
                1,
                1,
                1.0000001192092896
            ],
            "translation" : [
                -5.878973752260208e-08,
                1,
                3.166496753692627e-08
            ]
        },
        {
            "children" : [
                0,
                1,
                2,
                3,
                4
            ],
            "name" : "main",
            "rotation" : [
                -5.238689482212067e-10,
                -7.452399586327374e-09,
                0,
                1
            ],
            "translation" : [
                -2.60770320892334e-08,
                2.444721758365631e-08,
                1.1175870895385742e-08
            ]
        },
        {
            "mesh" : 0,
            "name" : "avatar",
            "skin" : 0
        },
        {
            "children" : [
                6,
                5
            ],
            "name" : "Armature",
            "rotation" : [
                -0.6074060201644897,
                0.35048237442970276,
                -0.3584211468696594,
                0.6162421107292175
            ],
            "translation" : [
                -0.1377943754196167,
                0.8474283814430237,
                1.2756720781326294
            ]
        }
    ],
    "animations" : [
        {
            "channels" : [
                {
                    "sampler" : 0,
                    "target" : {
                        "node" : 5,
                        "path" : "translation"
                    }
                },
                {
                    "sampler" : 1,
                    "target" : {
                        "node" : 5,
                        "path" : "rotation"
                    }
                },
                {
                    "sampler" : 2,
                    "target" : {
                        "node" : 5,
                        "path" : "scale"
                    }
                },
                {
                    "sampler" : 3,
                    "target" : {
                        "node" : 0,
                        "path" : "translation"
                    }
                },
                {
                    "sampler" : 4,
                    "target" : {
                        "node" : 0,
                        "path" : "rotation"
                    }
                },
                {
                    "sampler" : 5,
                    "target" : {
                        "node" : 0,
                        "path" : "scale"
                    }
                },
                {
                    "sampler" : 6,
                    "target" : {
                        "node" : 1,
                        "path" : "translation"
                    }
                },
                {
                    "sampler" : 7,
                    "target" : {
                        "node" : 1,
                        "path" : "rotation"
                    }
                },
                {
                    "sampler" : 8,
                    "target" : {
                        "node" : 1,
                        "path" : "scale"
                    }
                },
                {
                    "sampler" : 9,
                    "target" : {
                        "node" : 2,
                        "path" : "translation"
                    }
                },
                {
                    "sampler" : 10,
                    "target" : {
                        "node" : 2,
                        "path" : "rotation"
                    }
                },
                {
                    "sampler" : 11,
                    "target" : {
                        "node" : 2,
                        "path" : "scale"
                    }
                },
                {
                    "sampler" : 12,
                    "target" : {
                        "node" : 3,
                        "path" : "translation"
                    }
                },
                {
                    "sampler" : 13,
                    "target" : {
                        "node" : 3,
                        "path" : "rotation"
                    }
                },
                {
                    "sampler" : 14,
                    "target" : {
                        "node" : 3,
                        "path" : "scale"
                    }
                },
                {
                    "sampler" : 15,
                    "target" : {
                        "node" : 4,
                        "path" : "translation"
                    }
                },
                {
                    "sampler" : 16,
                    "target" : {
                        "node" : 4,
                        "path" : "rotation"
                    }
                },
                {
                    "sampler" : 17,
                    "target" : {
                        "node" : 4,
                        "path" : "scale"
                    }
                },
                {
                    "sampler" : 18,
                    "target" : {
                        "node" : 7,
                        "path" : "translation"
                    }
                },
                {
                    "sampler" : 19,
                    "target" : {
                        "node" : 7,
                        "path" : "rotation"
                    }
                },
                {
                    "sampler" : 20,
                    "target" : {
                        "node" : 7,
                        "path" : "scale"
                    }
                }
            ],
            "name" : "ArmatureAction",
            "samplers" : [
                {
                    "input" : 7,
                    "interpolation" : "LINEAR",
                    "output" : 8
                },
                {
                    "input" : 7,
                    "interpolation" : "LINEAR",
                    "output" : 9
                },
                {
                    "input" : 7,
                    "interpolation" : "LINEAR",
                    "output" : 10
                },
                {
                    "input" : 7,
                    "interpolation" : "LINEAR",
                    "output" : 11
                },
                {
                    "input" : 7,
                    "interpolation" : "LINEAR",
                    "output" : 12
                },
                {
                    "input" : 7,
                    "interpolation" : "LINEAR",
                    "output" : 13
                },
                {
                    "input" : 7,
                    "interpolation" : "LINEAR",
                    "output" : 14
                },
                {
                    "input" : 7,
                    "interpolation" : "LINEAR",
                    "output" : 15
                },
                {
                    "input" : 7,
                    "interpolation" : "LINEAR",
                    "output" : 16
                },
                {
                    "input" : 7,
                    "interpolation" : "LINEAR",
                    "output" : 17
                },
                {
                    "input" : 7,
                    "interpolation" : "LINEAR",
                    "output" : 18
                },
                {
                    "input" : 7,
                    "interpolation" : "LINEAR",
                    "output" : 19
                },
                {
                    "input" : 7,
                    "interpolation" : "LINEAR",
                    "output" : 20
                },
                {
                    "input" : 7,
                    "interpolation" : "LINEAR",
                    "output" : 21
                },
                {
                    "input" : 7,
                    "interpolation" : "LINEAR",
                    "output" : 22
                },
                {
                    "input" : 7,
                    "interpolation" : "LINEAR",
                    "output" : 23
                },
                {
                    "input" : 7,
                    "interpolation" : "LINEAR",
                    "output" : 24
                },
                {
                    "input" : 7,
                    "interpolation" : "LINEAR",
                    "output" : 25
                },
                {
                    "input" : 26,
                    "interpolation" : "LINEAR",
                    "output" : 27
                },
                {
                    "input" : 26,
                    "interpolation" : "LINEAR",
                    "output" : 28
                },
                {
                    "input" : 26,
                    "interpolation" : "LINEAR",
                    "output" : 29
                }
            ]
        },
        {
            "channels" : [
                {
                    "sampler" : 0,
                    "target" : {
                        "node" : 6,
                        "path" : "translation"
                    }
                },
                {
                    "sampler" : 1,
                    "target" : {
                        "node" : 6,
                        "path" : "rotation"
                    }
                },
                {
                    "sampler" : 2,
                    "target" : {
                        "node" : 6,
                        "path" : "scale"
                    }
                }
            ],
            "name" : "avatarAction",
            "samplers" : [
                {
                    "input" : 30,
                    "interpolation" : "STEP",
                    "output" : 31
                },
                {
                    "input" : 30,
                    "interpolation" : "STEP",
                    "output" : 32
                },
                {
                    "input" : 30,
                    "interpolation" : "STEP",
                    "output" : 33
                }
            ]
        }
    ],
    "materials" : [
        {
            "doubleSided" : true,
            "name" : "Material.003",
            "pbrMetallicRoughness" : {
                "baseColorTexture" : {
                    "index" : 0
                },
                "metallicFactor" : 0,
                "roughnessFactor" : 0.5
            }
        }
    ],
    "meshes" : [
        {
            "name" : "Cube_Cube.002",
            "primitives" : [
                {
                    "attributes" : {
                        "POSITION" : 0,
                        "NORMAL" : 1,
                        "TEXCOORD_0" : 2,
                        "JOINTS_0" : 3,
                        "WEIGHTS_0" : 4
                    },
                    "indices" : 5,
                    "material" : 0
                }
            ]
        }
    ],
    "textures" : [
        {
            "sampler" : 0,
            "source" : 0
        }
    ],
    "images" : [
        {
            "bufferView" : 6,
            "mimeType" : "image/png",
            "name" : "spirals1"
        }
    ],
    "skins" : [
        {
            "inverseBindMatrices" : 6,
            "joints" : [
                5,
                0,
                1,
                2,
                3,
                4
            ],
            "name" : "Armature"
        }
    ],
    "accessors" : [
        {
            "bufferView" : 0,
            "componentType" : 5126,
            "count" : 1104,
            "max" : [
                4.450279712677002,
                3.3367559909820557,
                0.5598790049552917
            ],
            "min" : [
                -4.430487632751465,
                -4.674421787261963,
                -0.4400469660758972
            ],
            "type" : "VEC3"
        },
        {
            "bufferView" : 1,
            "componentType" : 5126,
            "count" : 1104,
            "type" : "VEC3"
        },
        {
            "bufferView" : 2,
            "componentType" : 5126,
            "count" : 1104,
            "type" : "VEC2"
        },
        {
            "bufferView" : 3,
            "componentType" : 5121,
            "count" : 1104,
            "type" : "VEC4"
        },
        {
            "bufferView" : 4,
            "componentType" : 5126,
            "count" : 1104,
            "type" : "VEC4"
        },
        {
            "bufferView" : 5,
            "componentType" : 5123,
            "count" : 1728,
            "type" : "SCALAR"
        },
        {
            "bufferView" : 7,
            "componentType" : 5126,
            "count" : 6,
            "type" : "MAT4"
        },
        {
            "bufferView" : 8,
            "componentType" : 5126,
            "count" : 176,
            "max" : [
                7.333333333333333
            ],
            "min" : [
                0.041666666666666664
            ],
            "type" : "SCALAR"
        },
        {
            "bufferView" : 9,
            "componentType" : 5126,
            "count" : 176,
            "type" : "VEC3"
        },
        {
            "bufferView" : 10,
            "componentType" : 5126,
            "count" : 176,
            "type" : "VEC4"
        },
        {
            "bufferView" : 11,
            "componentType" : 5126,
            "count" : 176,
            "type" : "VEC3"
        },
        {
            "bufferView" : 12,
            "componentType" : 5126,
            "count" : 176,
            "type" : "VEC3"
        },
        {
            "bufferView" : 13,
            "componentType" : 5126,
            "count" : 176,
            "type" : "VEC4"
        },
        {
            "bufferView" : 14,
            "componentType" : 5126,
            "count" : 176,
            "type" : "VEC3"
        },
        {
            "bufferView" : 15,
            "componentType" : 5126,
            "count" : 176,
            "type" : "VEC3"
        },
        {
            "bufferView" : 16,
            "componentType" : 5126,
            "count" : 176,
            "type" : "VEC4"
        },
        {
            "bufferView" : 17,
            "componentType" : 5126,
            "count" : 176,
            "type" : "VEC3"
        },
        {
            "bufferView" : 18,
            "componentType" : 5126,
            "count" : 176,
            "type" : "VEC3"
        },
        {
            "bufferView" : 19,
            "componentType" : 5126,
            "count" : 176,
            "type" : "VEC4"
        },
        {
            "bufferView" : 20,
            "componentType" : 5126,
            "count" : 176,
            "type" : "VEC3"
        },
        {
            "bufferView" : 21,
            "componentType" : 5126,
            "count" : 176,
            "type" : "VEC3"
        },
        {
            "bufferView" : 22,
            "componentType" : 5126,
            "count" : 176,
            "type" : "VEC4"
        },
        {
            "bufferView" : 23,
            "componentType" : 5126,
            "count" : 176,
            "type" : "VEC3"
        },
        {
            "bufferView" : 24,
            "componentType" : 5126,
            "count" : 176,
            "type" : "VEC3"
        },
        {
            "bufferView" : 25,
            "componentType" : 5126,
            "count" : 176,
            "type" : "VEC4"
        },
        {
            "bufferView" : 26,
            "componentType" : 5126,
            "count" : 176,
            "type" : "VEC3"
        },
        {
            "bufferView" : 27,
            "componentType" : 5126,
            "count" : 77,
            "max" : [
                7.333333333333333
            ],
            "min" : [
                4.166666666666667
            ],
            "type" : "SCALAR"
        },
        {
            "bufferView" : 28,
            "componentType" : 5126,
            "count" : 77,
            "type" : "VEC3"
        },
        {
            "bufferView" : 29,
            "componentType" : 5126,
            "count" : 77,
            "type" : "VEC4"
        },
        {
            "bufferView" : 30,
            "componentType" : 5126,
            "count" : 77,
            "type" : "VEC3"
        },
        {
            "bufferView" : 31,
            "componentType" : 5126,
            "count" : 1,
            "max" : [
                4.166666666666667
            ],
            "min" : [
                4.166666666666667
            ],
            "type" : "SCALAR"
        },
        {
            "bufferView" : 32,
            "componentType" : 5126,
            "count" : 1,
            "type" : "VEC3"
        },
        {
            "bufferView" : 33,
            "componentType" : 5126,
            "count" : 1,
            "type" : "VEC4"
        },
        {
            "bufferView" : 34,
            "componentType" : 5126,
            "count" : 1,
            "type" : "VEC3"
        }
    ],
    "bufferViews" : [
        {
            "buffer" : 0,
            "byteLength" : 13248,
            "byteOffset" : 0,
            "target" : 34962
        },
        {
            "buffer" : 0,
            "byteLength" : 13248,
            "byteOffset" : 13248,
            "target" : 34962
        },
        {
            "buffer" : 0,
            "byteLength" : 8832,
            "byteOffset" : 26496,
            "target" : 34962
        },
        {
            "buffer" : 0,
            "byteLength" : 4416,
            "byteOffset" : 35328,
            "target" : 34962
        },
        {
            "buffer" : 0,
            "byteLength" : 17664,
            "byteOffset" : 39744,
            "target" : 34962
        },
        {
            "buffer" : 0,
            "byteLength" : 3456,
            "byteOffset" : 57408,
            "target" : 34963
        },
        {
            "buffer" : 0,
            "byteLength" : 19373,
            "byteOffset" : 60864
        },
        {
            "buffer" : 0,
            "byteLength" : 384,
            "byteOffset" : 80240
        },
        {
            "buffer" : 0,
            "byteLength" : 704,
            "byteOffset" : 80624
        },
        {
            "buffer" : 0,
            "byteLength" : 2112,
            "byteOffset" : 81328
        },
        {
            "buffer" : 0,
            "byteLength" : 2816,
            "byteOffset" : 83440
        },
        {
            "buffer" : 0,
            "byteLength" : 2112,
            "byteOffset" : 86256
        },
        {
            "buffer" : 0,
            "byteLength" : 2112,
            "byteOffset" : 88368
        },
        {
            "buffer" : 0,
            "byteLength" : 2816,
            "byteOffset" : 90480
        },
        {
            "buffer" : 0,
            "byteLength" : 2112,
            "byteOffset" : 93296
        },
        {
            "buffer" : 0,
            "byteLength" : 2112,
            "byteOffset" : 95408
        },
        {
            "buffer" : 0,
            "byteLength" : 2816,
            "byteOffset" : 97520
        },
        {
            "buffer" : 0,
            "byteLength" : 2112,
            "byteOffset" : 100336
        },
        {
            "buffer" : 0,
            "byteLength" : 2112,
            "byteOffset" : 102448
        },
        {
            "buffer" : 0,
            "byteLength" : 2816,
            "byteOffset" : 104560
        },
        {
            "buffer" : 0,
            "byteLength" : 2112,
            "byteOffset" : 107376
        },
        {
            "buffer" : 0,
            "byteLength" : 2112,
            "byteOffset" : 109488
        },
        {
            "buffer" : 0,
            "byteLength" : 2816,
            "byteOffset" : 111600
        },
        {
            "buffer" : 0,
            "byteLength" : 2112,
            "byteOffset" : 114416
        },
        {
            "buffer" : 0,
            "byteLength" : 2112,
            "byteOffset" : 116528
        },
        {
            "buffer" : 0,
            "byteLength" : 2816,
            "byteOffset" : 118640
        },
        {
            "buffer" : 0,
            "byteLength" : 2112,
            "byteOffset" : 121456
        },
        {
            "buffer" : 0,
            "byteLength" : 308,
            "byteOffset" : 123568
        },
        {
            "buffer" : 0,
            "byteLength" : 924,
            "byteOffset" : 123876
        },
        {
            "buffer" : 0,
            "byteLength" : 1232,
            "byteOffset" : 124800
        },
        {
            "buffer" : 0,
            "byteLength" : 924,
            "byteOffset" : 126032
        },
        {
            "buffer" : 0,
            "byteLength" : 4,
            "byteOffset" : 126956
        },
        {
            "buffer" : 0,
            "byteLength" : 12,
            "byteOffset" : 126960
        },
        {
            "buffer" : 0,
            "byteLength" : 16,
            "byteOffset" : 126972
        },
        {
            "buffer" : 0,
            "byteLength" : 12,
            "byteOffset" : 126988
        }
    ],
    "samplers" : [
        {
            "magFilter" : 9729,
            "minFilter" : 9987
        }
    ],
    "buffers" : [
        {
            "byteLength" : 127000,
            "uri" : "data:application/octet-stream;base64,"
        }
    ]
}
